# xmcd
# 
# Track frame offsets:
#     150
#     20403
#     37707
#     54835
#     78187
#     97970
#     116874
#     131792
#     155351
#     180423
#     201832
#     218906
# 
# Disc length: 3209
# 
# Revision: 1
# Processed by: cddbd v1.5.2PL0 Copyright (c) Steve Scherf et al.
# Submitted via: fre:ac v1.0.27
# 
DISCID=920c870c
DTITLE=Chris James and Patrick Rynn - Barrelhouse Stomp
DYEAR=2014
DGENRE=Blues
TTITLE0=Goodbye, Later for You
TTITLE1=Just Another Kick in the Teeth
TTITLE2=I Feel So Good
TTITLE3=Messin' with White Lighnin'
TTITLE4=Before It's Too Late
TTITLE5=A Fact is a Fact
TTITLE6=It Always Can Be Worse
TTITLE7=I'm Gonna Stop Fooling Myself
TTITLE8=Vicksburg Blues
TTITLE9=Bobby's Rock
TTITLE10=Take It Easy (A Tribute to Pinetop Perkins)
TTITLE11=Last Call Woogie
EXTD=YEAR: 2014
EXTT0=
EXTT1=
EXTT2=
EXTT3=
EXTT4=
EXTT5=
EXTT6=
EXTT7=
EXTT8=
EXTT9=
EXTT10=
EXTT11=
PLAYORDER=
